<svg xmlns="http://www.w3.org/2000/svg" width="1em" height="1em" viewBox="0 0 512 512" version="1.1">
    <path d="" stroke="none" fill="currentColor" fill-rule="evenodd"/>
    <path d="M 97.655 16.597 C 80.357 19.722, 62.790 27.677, 48.078 39.047 C 28.921 53.853, 15.035 75.028, 8.143 99.946 L 5.500 109.500 5.230 252.466 C 4.990 379.449, 5.137 396.378, 6.544 403.886 C 14.735 447.600, 46.050 481.499, 89.500 493.688 L 99.500 496.494 167 496.497 L 234.500 496.500 244.655 493.811 C 280.718 484.263, 308.778 459.738, 322.459 425.811 C 329.100 409.341, 332.341 383.339, 328.793 375 C 326.434 369.457, 322.340 365.306, 316.516 362.551 C 306.974 358.037, 297.605 359.483, 289.937 366.655 C 284.615 371.634, 282 377.585, 282 384.720 C 282 392.299, 279.005 404.215, 275.018 412.500 C 268.104 426.868, 254.393 439.145, 238.977 444.771 L 231.500 447.500 170.283 447.779 C 101.286 448.094, 101.844 448.141, 87.765 440.817 C 74.545 433.939, 63.302 421.360, 57.653 407.127 C 52.971 395.328, 53.045 397.951, 53.287 253.500 C 53.500 126.906, 53.638 117.085, 55.280 111.500 C 62.058 88.439, 79.330 71.374, 101.781 65.557 C 107.187 64.156, 115.892 63.948, 167.519 63.984 C 206.608 64.012, 228.822 64.402, 232.262 65.121 C 249.069 68.635, 266.940 82.873, 274.802 99.012 C 278.986 107.602, 282 119.361, 282 127.092 C 282 134.295, 284.075 139.143, 289.466 144.534 C 301.478 156.546, 319.801 153.793, 327.615 138.804 C 330.278 133.696, 330.786 128.970, 329.856 117.964 C 327.591 91.184, 316.501 67.502, 297.119 48.058 C 280.250 31.136, 260.085 20.641, 236.554 16.537 C 224.161 14.376, 109.675 14.425, 97.655 16.597 M 378.627 154.407 C 368.547 158.159, 362.452 167.151, 362.573 178.095 C 362.683 188.070, 365.048 191.315, 382.579 205.539 C 390.688 212.117, 401.341 220.762, 406.254 224.750 L 415.186 232 288.561 232 C 148.803 232, 158.184 231.570, 151.162 238.301 C 145.816 243.426, 143.640 248.546, 143.640 256 C 143.640 265.455, 147.460 271.901, 156.456 277.621 C 159.298 279.428, 164.325 279.519, 287.031 280 L 414.650 280.500 400.368 291.933 C 392.512 298.221, 385.052 304.296, 383.790 305.433 C 382.527 306.570, 378.298 310.054, 374.392 313.176 C 365.673 320.144, 362.649 325.603, 362.583 334.500 C 362.503 345.108, 368.848 354.057, 378.872 357.472 C 390.672 361.493, 393.653 359.987, 426.594 333.371 C 441.942 320.970, 455.631 309.851, 457.014 308.662 C 458.397 307.473, 464.022 302.927, 469.514 298.560 C 475.006 294.193, 479.725 290.358, 480 290.038 C 480.275 289.718, 484.550 286.244, 489.500 282.319 C 504.300 270.583, 507 266.660, 507 256.898 C 507 249.135, 505.103 244.231, 500.046 238.927 C 494.605 233.219, 401.270 157.708, 396.797 155.395 C 392.437 153.140, 383.358 152.647, 378.627 154.407" stroke="none" fill="currentColor" fill-rule="evenodd"/>
</svg>